<?xml version="1.0" encoding="UTF-8"?>
<svg id="LogoSupervielleAnimado" xmlns="http://www.w3.org/2000/svg" version="1.1" viewBox="0 0 1450 150">
  <defs>
    <clipPath id="reveal-clip-supervielle">
      <rect x="0" y="0" width="0" height="150">
        <animate attributeName="width" values="0;620" dur="1.2s" begin="0s" fill="freeze" calcMode="spline" keySplines="0.4 0 0.2 1"/>
      </rect>
    </clipPath>
    <clipPath id="reveal-clip-tagline">
      <rect x="0" y="0" width="0" height="150">
        <animate attributeName="width" values="0;920" dur="0.6s" begin="1.4s" fill="freeze" calcMode="spline" keySplines="0.4 0 0.2 1"/>
      </rect>
    </clipPath>
  </defs>

  <style>
    .logo-fill { fill: #1a1a1a; }
    
    /* Barra vertical - se mueve y luego desaparece */
    #barra-vertical {
      animation: 
        barraCompleta 2.0s cubic-bezier(0.4, 0, 0.2, 1) forwards,
        barraFadeOut 0.4s ease-out 2.8s forwards;
    }
    @keyframes barraCompleta {
      0%   { transform: translateX(0px); }
      60%  { transform: translateX(620px); }
      70%  { transform: translateX(620px); }
      90%  { transform: translateX(370px); }
      100% { transform: translateX(370px); }
    }
    @keyframes barraFadeOut {
      0%   { opacity: 1; }
      100% { opacity: 0; }
    }
    
    /* SUPERVIELLE - se revela y se mueve a la izquierda (se queda ahí) */
    #supervielle-container {
      clip-path: url(#reveal-clip-supervielle);
      animation: slideSupervielleLeft 0.4s cubic-bezier(0.4, 0, 0.2, 1) 1.4s forwards;
    }
    @keyframes slideSupervielleLeft {
      0%   { transform: translateX(0px); }
      100% { transform: translateX(-250px); }
    }
    
    /* Tagline - aparece y luego desaparece */
    #tagline-group {
      clip-path: url(#reveal-clip-tagline);
      animation: taglineFadeOut 0.4s ease-out 2.8s forwards;
    }
    @keyframes taglineFadeOut {
      0%   { opacity: 1; }
      100% { opacity: 0; }
    }
  </style>

  <rect id="barra-vertical" class="logo-fill" x="280" y="25" width="4" height="100"/>

  <g id="main-group" transform="translate(280, 0)">
    <g id="supervielle-container">
      <path class="logo-fill" d="M39.8,68.7c-9.5-3.3-12.3-4.8-12.3-8.9s4-6.5,9.3-6.5,10.2,1.5,16,4.5c.1,0,.2,0,.3,0s.2,0,.3,0c.2-.1.3-.3.4-.5l1.6-9.9c0-.3-.1-.6-.4-.8-5.2-2.3-11.6-3.6-17.8-3.6-12.3,0-21,7.4-21,18.1s6.6,13.9,19.5,18.4c8.6,2.9,11.4,4.7,11.4,9.2s-4.3,7.5-11.1,7.5-13.2-2.1-19.3-5.3c-.1,0-.2,0-.3,0s-.2,0-.3,0c-.2.1-.3.3-.4.5l-1.6,9.6c0,.3.1.6.4.8,7,3,14.4,4.6,21,4.6,13.7,0,22.9-7.7,22.9-19.1s-6.6-14.6-18.7-18.8"/>
      <path class="logo-fill" d="M120.4,43.9h-10.8c-.4,0-.7.3-.7.7v36.7c0,9.8-4.6,15-13.4,15s-13.2-5.4-13.2-15.3v-36.5c0-.4-.3-.7-.7-.7h-10.7c-.4,0-.7.3-.7.7v36.9c0,15.9,9.4,25.4,25.3,25.4s25.7-9.7,25.7-25.9v-36.5c0-.4-.3-.7-.7-.7"/>
      <path class="logo-fill" d="M156.6,72.3h-6.9v-17.9h7.2c5.2,0,11.4,1.6,11.4,8.9s-3.8,8.9-11.7,8.9M157.9,43.9h-19.7c-.4,0-.7.3-.7.7v60.4c0,.4.3.7.7.7h10.7c.4,0,.7-.3.7-.7v-22.4h6.9c15,0,23.6-7.1,23.6-19.5s-8.5-19.2-22.3-19.2"/>
      <path class="logo-fill" d="M231.2,94.9h-26.9v-15.9h22.3c.2,0,.4,0,.5-.3.1-.2.2-.4.2-.6l-1.5-9.4c0-.3-.4-.6-.7-.6h-20.7v-13.5h26.1c.4,0,.7-.3.7-.7v-9.4c0-.4-.3-.7-.7-.7h-37.5c-.4,0-.7.3-.7.7v60.4c0,.4.3.7.7.7h38.4c.4,0,.7-.3.7-.7v-9.4c0-.4-.3-.7-.7-.7"/>
      <path class="logo-fill" d="M275.7,63.3c0,6-4.1,9.3-11.4,9.3h-7.1v-18h7.1c5.2,0,11.4,1.5,11.4,8.7M275.7,80.7c7.9-3,12.2-9.2,12.2-17.5,0-12.1-8.8-19.3-23.5-19.3h-18.7c-.4,0-.7.3-.7.7v60.4c0,.4.3.7.7.7h10.7c.4,0,.7-.3.7-.7v-22.6h5.5l16.7,23.8c.1.2.4.3.6.3s.1,0,.2,0l11.1-2.5c.2,0,.4-.2.5-.4,0-.2,0-.5,0-.7l-15.8-22.1Z"/>
      <path class="logo-fill" d="M352.8,44h-10.8c-.3,0-.6.2-.7.5l-17,45.3-16.6-45.3c-.1-.3-.4-.5-.7-.5h-11.8c-.2,0-.4.2-.5.4-.1.2-.1.4,0,.6l23.5,60.4c.1.3.4.5.7.5h9.9c.3,0,.6-.2.7-.5l23.9-60.3c0-.2,0-.5,0-.7-.1-.2-.4-.3-.6-.3"/>
      <path class="logo-fill" d="M376.3,43.9h-10.8c-.4,0-.7.3-.7.7v60.4c0,.4.3.7.7.7h10.8c.4,0,.7-.3.7-.7v-60.4c0-.4-.3-.7-.7-.7"/>
      <path class="logo-fill" d="M435.7,94.9h-26.9v-15.9h22.3c.2,0,.4,0,.5-.3.1-.2.2-.4.2-.6l-1.6-9.4c0-.3-.4-.6-.7-.6h-20.7v-13.5h26.1c.4,0,.7-.3.7-.7v-9.4c0-.4-.3-.7-.7-.7h-37.5c-.4,0-.7.3-.7.7v60.4c0,.4.3.7.7.7h38.4c.4,0,.7-.3.7-.7v-9.4c0-.4-.3-.7-.7-.7"/>
      <path class="logo-fill" d="M486.7,95h-22.2v-50.4c0-.4-.3-.7-.7-.7h-10.7c-.4,0-.7.3-.7.7v60.4c0,.4.3.7.7.7h35.1c.2,0,.4,0,.5-.2.1-.2.2-.4.2-.6l-1.6-9.3c0-.3-.4-.6-.7-.6"/>
      <path class="logo-fill" d="M533.8,95h-22.2v-50.4c0-.4-.3-.7-.7-.7h-10.7c-.4,0-.7.3-.7.7v60.4c0,.4.3.7.7.7h35.1c.2,0,.4,0,.5-.2.1-.2.2-.4.2-.6l-1.5-9.3c0-.3-.4-.6-.7-.6"/>
      <path class="logo-fill" d="M585.1,94.9h-26.9v-15.9h22.3c.2,0,.4,0,.5-.3.1-.2.2-.4.2-.6l-1.5-9.4c0-.3-.4-.6-.7-.6h-20.7v-13.5h26.1c.4,0,.7-.3.7-.7v-9.4c0-.4-.3-.7-.7-.7h-37.5c-.4,0-.7.3-.7.7v60.4c0,.4.3.7.7.7h38.4c.4,0,.7-.3.7-.7v-9.4c0-.4-.3-.7-.7-.7"/>
    </g>
  </g>

  <g id="tagline-group" transform="translate(680, 0)">
    <text x="0" y="98" font-family="Arial, Helvetica, sans-serif" font-size="65" font-weight="bold" letter-spacing="1" fill="#1a1a1a" stroke="#1a1a1a" stroke-width="0.8">TE SIGUE EL RITMO</text>
  </g>
</svg>
