<svg xmlns="http://www.w3.org/2000/svg" xmlns:xlink="http://www.w3.org/1999/xlink" version="1.0" x="0" y="0" width="2400" height="613.9187667469024" viewBox="42.98450225830078 92.50949996948242 254.03100311279297 64.98100006103516" preserveAspectRatio="xMidYMid meet" color-interpolation-filters="sRGB"><g><defs><linearGradient id="92" x1="0%" y1="0%" x2="100%" y2="0%"><stop offset="0%" stop-color="#fa71cd"></stop> <stop offset="100%" stop-color="#9b59b6"></stop></linearGradient><linearGradient id="93" x1="0%" y1="0%" x2="100%" y2="0%"><stop offset="0%" stop-color="#f9d423"></stop> <stop offset="100%" stop-color="#f83600"></stop></linearGradient><linearGradient id="94" x1="0%" y1="0%" x2="100%" y2="0%"><stop offset="0%" stop-color="#0064d2"></stop> <stop offset="100%" stop-color="#1cb0f6"></stop></linearGradient><linearGradient id="95" x1="0%" y1="0%" x2="100%" y2="0%"><stop offset="0%" stop-color="#f00978"></stop> <stop offset="100%" stop-color="#3f51b1"></stop></linearGradient><linearGradient id="96" x1="0%" y1="0%" x2="100%" y2="0%"><stop offset="0%" stop-color="#7873f5"></stop> <stop offset="100%" stop-color="#ec77ab"></stop></linearGradient><linearGradient id="97" x1="0%" y1="0%" x2="100%" y2="0%"><stop offset="0%" stop-color="#f9d423"></stop> <stop offset="100%" stop-color="#e14fad"></stop></linearGradient><linearGradient id="98" x1="0%" y1="0%" x2="100%" y2="0%"><stop offset="0%" stop-color="#009efd"></stop> <stop offset="100%" stop-color="#2af598"></stop></linearGradient><linearGradient id="99" x1="0%" y1="0%" x2="100%" y2="0%"><stop offset="0%" stop-color="#ffcc00"></stop> <stop offset="100%" stop-color="#00b140"></stop></linearGradient><linearGradient id="100" x1="0%" y1="0%" x2="100%" y2="0%"><stop offset="0%" stop-color="#d51007"></stop> <stop offset="100%" stop-color="#ff8177"></stop></linearGradient><linearGradient id="102" x1="0%" y1="0%" x2="100%" y2="0%"><stop offset="0%" stop-color="#a2b6df"></stop> <stop offset="100%" stop-color="#0c3483"></stop></linearGradient><linearGradient id="103" x1="0%" y1="0%" x2="100%" y2="0%"><stop offset="0%" stop-color="#7ac5d8"></stop> <stop offset="100%" stop-color="#eea2a2"></stop></linearGradient><linearGradient id="104" x1="0%" y1="0%" x2="100%" y2="0%"><stop offset="0%" stop-color="#00ecbc"></stop> <stop offset="100%" stop-color="#007adf"></stop></linearGradient><linearGradient id="105" x1="0%" y1="0%" x2="100%" y2="0%"><stop offset="0%" stop-color="#b88746"></stop> <stop offset="100%" stop-color="#fdf5a6"></stop></linearGradient></defs><g fill="#fff" class="icon-text-wrapper icon-svg-group iconsvg" transform="translate(45.474998474121094,95)"><g class="iconsvg-imagesvg" transform="translate(0,0)"><g><rect fill="#fff" fill-opacity="0" stroke-width="2" x="0" y="0" width="60" height="60" class="image-rect"></rect> <svg filter="url(#colors131140703)" x="0" y="0" width="60" height="60" filtersec="colorsf2066244267" class="image-svg-svg primary" style="overflow: visible;"><svg xmlns="http://www.w3.org/2000/svg" xmlns:xlink="http://www.w3.org/1999/xlink" version="1.1" x="0px" y="0px" viewBox="0.5 0.5 47 47" enable-background="new 0 0 48 48" xml:space="preserve"><g><path d="M47.5,23.5v-4.8c0-0.5-0.6-0.8-1-0.5c-4.9,3.9-13.7,5.9-22.5,5.9c-8.7,0-17.5-2-22.5-5.9   c-0.4-0.3-1,0-1,0.5v4.8h0c0,0.1,0,0.2,0,0.4C0.5,29.5,11,34.1,24,34.1c13,0,23.5-4.6,23.5-10.3C47.5,23.7,47.5,23.6,47.5,23.5   L47.5,23.5z"></path><path d="M47.5,36.9v-4.8c0-0.5-0.6-0.8-1-0.5c-4.9,3.9-13.7,5.9-22.5,5.9c-8.7,0-17.5-2-22.5-5.9   c-0.4-0.3-1,0-1,0.5v4.8h0c0,0.1,0,0.2,0,0.4C0.5,42.9,11,47.5,24,47.5c13,0,23.5-4.6,23.5-10.3C47.5,37.1,47.5,37,47.5,36.9   L47.5,36.9z"></path><ellipse cx="24" cy="10.8" rx="23.5" ry="10.3"></ellipse></g></svg></svg> <defs><filter id="colors131140703"><feColorMatrix type="matrix" values="0 0 0 0 0.99609375  0 0 0 0 0.99609375  0 0 0 0 0.99609375  0 0 0 1 0" class="icon-feColorMatrix "></feColorMatrix></filter> <filter id="colorsf2066244267"><feColorMatrix type="matrix" values="0 0 0 0 0.99609375  0 0 0 0 0.99609375  0 0 0 0 0.99609375  0 0 0 1 0" class="icon-fecolormatrix"></feColorMatrix></filter> <filter id="colorsb6637658618"><feColorMatrix type="matrix" values="0 0 0 0 0  0 0 0 0 0  0 0 0 0 0  0 0 0 1 0" class="icon-fecolormatrix"></feColorMatrix></filter></defs></g></g> <g transform="translate(73,13.629997253417969)"><g fill-rule="" class="tp-name iconsvg-namesvg"><g transform="scale(1)"><g><path d="M19.9-7.93L19.9-7.93Q19.9-5.5 18.66-3.62 17.43-1.73 15.11-0.69 12.79 0.36 9.66 0.36L9.66 0.36Q7.05 0.36 5.29-0.01 3.52-0.38 1.61-1.29L1.61-1.29 1.61-7.57Q3.63-6.54 5.8-5.96 7.98-5.38 9.81-5.38L9.81-5.38Q11.38-5.38 12.11-5.92 12.84-6.47 12.84-7.32L12.84-7.32Q12.84-7.86 12.55-8.26 12.25-8.66 11.6-9.07 10.95-9.48 8.13-10.75L8.13-10.75Q5.57-11.91 4.3-13 3.02-14.09 2.4-15.5 1.79-16.91 1.79-18.84L1.79-18.84Q1.79-22.45 4.41-24.47 7.04-26.49 11.63-26.49L11.63-26.49Q15.68-26.49 19.9-24.61L19.9-24.61 17.74-19.16Q14.07-20.84 11.41-20.84L11.41-20.84Q10.04-20.84 9.41-20.36 8.79-19.88 8.79-19.16L8.79-19.16Q8.79-18.4 9.58-17.79 10.38-17.18 13.9-15.57L13.9-15.57Q17.27-14.06 18.58-12.31 19.9-10.57 19.9-7.93ZM48.37-13.09L48.37-13.09Q48.37-4.22 42.72-1.13L42.72-1.13 49.1 6.22 40.31 6.22 35.7 0.41 35.69 0.39 35.69 0.38 35.67 0.36Q29.52 0.36 26.25-3.09 22.97-6.54 22.97-13.13L22.97-13.13Q22.97-19.65 26.23-23.08 29.49-26.52 35.7-26.52L35.7-26.52Q41.94-26.52 45.15-23.11 48.37-19.7 48.37-13.09ZM30.4-13.09L30.4-13.09Q30.4-5.52 35.67-5.52L35.67-5.52Q38.35-5.52 39.64-7.36 40.94-9.2 40.94-13.09L40.94-13.09Q40.94-17 39.62-18.87 38.31-20.74 35.7-20.74L35.7-20.74Q30.4-20.74 30.4-13.09ZM70.19 0L53.08 0 53.08-26.11 60.14-26.11 60.14-5.7 70.19-5.7 70.19 0ZM108.74-26.11L108.74 0 99.48 0 89.95-18.4 89.79-18.4Q90.13-14.06 90.13-11.77L90.13-11.77 90.13 0 83.87 0 83.87-26.11 93.09-26.11 102.59-7.97 102.7-7.97Q102.45-11.91 102.45-14.31L102.45-14.31 102.45-26.11 108.74-26.11ZM133.29-10.16L133.29-10.16Q133.29-5.2 130.62-2.42 127.95 0.36 123.15 0.36L123.15 0.36Q118.54 0.36 115.82-2.48 113.09-5.32 113.09-10.16L113.09-10.16Q113.09-15.11 115.76-17.85 118.43-20.59 123.26-20.59L123.26-20.59Q126.24-20.59 128.53-19.33 130.81-18.06 132.05-15.69 133.29-13.32 133.29-10.16ZM120.18-10.16L120.18-10.16Q120.18-7.56 120.88-6.19 121.58-4.82 123.22-4.82L123.22-4.82Q124.85-4.82 125.52-6.19 126.19-7.56 126.19-10.16L126.19-10.16Q126.19-12.75 125.51-14.07 124.83-15.4 123.19-15.4L123.19-15.4Q121.58-15.4 120.88-14.08 120.18-12.77 120.18-10.16ZM149.49 0L142.58 0 134.87-20.24 142.15-20.24 145.58-8.27Q145.6-8.18 145.65-7.97 145.71-7.75 145.76-7.46 145.81-7.16 145.86-6.83 145.9-6.5 145.9-6.22L145.9-6.22 146.03-6.22Q146.03-7.14 146.35-8.23L146.35-8.23 149.94-20.24 157.21-20.24 149.49 0ZM177.66 0L172.82 0 171.48-2.68 171.34-2.68Q169.93-0.93 168.46-0.29 167 0.36 164.68 0.36L164.68 0.36Q161.82 0.36 160.17-1.36 158.53-3.07 158.53-6.18L158.53-6.18Q158.53-9.41 160.78-10.99 163.03-12.57 167.3-12.77L167.3-12.77 170.68-12.88 170.68-13.16Q170.68-15.66 168.21-15.66L168.21-15.66Q166-15.66 162.59-14.16L162.59-14.16 160.57-18.77Q164.1-20.59 169.5-20.59L169.5-20.59Q173.39-20.59 175.53-18.66 177.66-16.74 177.66-13.27L177.66-13.27 177.66 0ZM167.64-4.57L167.64-4.57Q168.91-4.57 169.81-5.38 170.71-6.18 170.71-7.47L170.71-7.47 170.71-9.04 169.1-8.97Q165.66-8.84 165.66-6.43L165.66-6.43Q165.66-4.57 167.64-4.57Z" transform="translate(-1.6100000143051147, 26.520000457763672)"></path></g> </g></g> </g></g><defs v-gra="od"></defs></g></svg>